<svg id="Capa_1" enable-background="new 0 0 512 512" height="512" fill="#fff" viewBox="0 0 512 512" width="512" xmlns="http://www.w3.org/2000/svg"><g><path d="m292.81 352.894c-2.914-2.944-7.663-2.968-10.606-.054s-2.967 7.663-.053 10.606c28.431 28.718 45.869 72.388 51.83 129.801.136 1.307-.479 2.206-.857 2.625-.379.422-1.213 1.128-2.534 1.128h-147.865c.105-.769.178-1.548.178-2.346v-72.774c0-9.564-7.781-17.346-17.346-17.346h-21.248c-2.092-12.488-12.971-22.037-26.044-22.037h-9.036c-6.3 0-11.425-5.12-11.425-11.414v-2.846c14.548-16.26 32.077-27.95 52.297-34.635v17.948c0 23.208 18.881 42.09 42.09 42.09 23.203 0 42.08-18.882 42.08-42.09v-17.94c7.607 2.517 14.905 5.749 21.775 9.68 1.175.672 2.455.991 3.718.991 2.602 0 5.131-1.355 6.516-3.775 2.058-3.596.811-8.178-2.784-10.235-9.151-5.236-18.962-9.375-29.225-12.366v-16.843c15.266-5.856 27.492-15.38 36.595-28.518l33.785-8.249c9.663-2.361 17.244-9.407 20.865-18.564h12.104c12.324 0 22.35-10.026 22.35-22.351v-27.12c0-10.907-7.849-20.009-18.191-21.965l.738-6.849c4.604-42.619-9.18-85.356-37.818-117.254-28.637-31.898-69.645-50.192-112.509-50.192-42.87 0-83.881 18.295-112.52 50.193-28.637 31.898-42.42 74.634-37.817 117.249l.738 6.852c-10.342 1.956-18.191 11.059-18.191 21.966v27.12c0 12.324 10.026 22.351 22.35 22.351h12.104c3.621 9.158 11.202 16.204 20.867 18.565l3.082.752v26.807c0 4.932-4.007 8.943-8.933 8.943h-20.916c-16.058 0-29.122 13.064-29.122 29.122 0 7.771 3.024 15.084 8.523 20.598 5.504 5.505 12.819 8.536 20.599 8.536h20.917c3.407 0 6.373 1.919 7.879 4.732-24.771 30.563-40.661 73.868-46.279 127.906-.54 5.173 1.149 10.356 4.632 14.222 3.485 3.868 8.471 6.086 13.677 6.086h276.81c5.206 0 10.191-2.218 13.676-6.086 3.483-3.864 5.172-9.049 4.634-14.219-6.323-60.895-25.194-107.595-56.09-138.801zm-124.908 68.986v72.774c0 1.293-1.052 2.346-2.346 2.346h-43.891c-1.293 0-2.346-1.053-2.346-2.346v-72.774c0-1.293 1.052-2.346 2.346-2.346h43.891c1.294 0 2.346 1.053 2.346 2.346zm51.368-70.33c0 14.938-12.148 27.09-27.08 27.09-14.938 0-27.09-12.152-27.09-27.09v-46.12c8.325 1.744 17.35 2.63 27.085 2.63s18.76-.886 27.084-2.63v46.12zm6.11-63.216c-.585.11-1.145.288-1.674.525-9.208 2.803-19.693 4.201-31.52 4.201-11.828 0-22.314-1.398-31.523-4.202-.528-.237-1.086-.415-1.67-.524-17.864-5.874-30.738-17.258-38.983-34.367-7.118-14.758-10.727-33.962-10.727-57.08 0-11.361 1.889-23.089 5.617-34.867 3.599-11.425 8.708-22.21 15.186-32.055.887-1.348 2.192-1.698 2.891-1.787.185-.023.37-.035.554-.035 1.095 0 2.162.409 2.993 1.163 12.454 11.278 26.366 20.763 41.343 28.186 4.88 2.426 10.658 2.324 15.455-.271 4.797-2.597 8.042-7.379 8.681-12.799l.126-1.082c18.751 9.63 41.329 13.827 62.503 11.336.733-.085 1.459-.179 2.179-.281.976 2.528 1.867 5.079 2.666 7.636 3.725 11.768 5.613 23.495 5.613 34.857 0 23.119-3.609 42.323-10.728 57.082-8.245 17.107-21.118 28.49-38.982 34.364zm75.711-38.61-20.704 5.055c6.435-15.852 9.701-35.283 9.701-57.891 0-8.741-.999-17.644-2.928-26.584l13.936 3.403c6.811 1.658 11.754 8.489 11.754 16.243v43.52c0 7.753-4.946 14.589-11.759 16.254zm43.879-53.464v27.12c0 4.053-3.297 7.351-7.35 7.351h-9.77v-40.78c0-.354-.031-.699-.042-1.05h5.654l.018.001.021-.001h4.12c4.052-.001 7.349 3.301 7.349 7.359zm-254.138-136.045c25.797-28.735 62.741-45.215 101.358-45.215 38.611 0 75.551 16.479 101.347 45.212 25.797 28.733 38.213 67.231 34.066 105.625l-.868 8.063h-3.007c-2.494-4.491-6.017-8.28-10.298-11.002v-18.048c0-22.055-6.932-43.064-20.047-60.758-12.936-17.453-30.678-30.114-51.309-36.615-3.95-1.244-8.162.948-9.407 4.899-1.245 3.95.949 8.162 4.899 9.407 36.405 11.472 60.864 44.854 60.864 83.066v12.765l-15.896-3.883c-1.257-3.642-2.678-7.271-4.246-10.829-1.45-3.289-5.03-5.089-8.534-4.286-2.141.489-4.447.879-6.864 1.16-21.758 2.554-45.174-3.035-62.64-14.962-2.167-1.479-4.951-1.719-7.339-.632-2.388 1.089-4.034 3.347-4.339 5.953l-1.467 12.535c-.089.757-.552 1.155-.924 1.357-.372.2-.957.37-1.646.027-13.747-6.814-26.513-15.518-37.943-25.868-4.221-3.824-9.876-5.608-15.507-4.89-5.54.703-10.471 3.773-13.53 8.422-6.52 9.91-11.784 20.667-15.699 32.009l-16.035 3.916v-43.303c0-8.856 5.696-16.523 14.172-19.078l12.49-3.76c1.068-.321 2.052-.878 2.878-1.628l29.869-27.109c7.355-6.672 17.253-9.963 27.139-9.048l32.06 3.01c4.122.395 7.782-2.642 8.168-6.766.387-4.124-2.642-7.781-6.766-8.168l-32.065-3.011c-14.076-1.31-28.151 3.38-38.617 12.874l-28.615 25.971-10.869 3.272c-14.86 4.479-24.845 17.918-24.845 33.441v48.632c-4.227 2.717-7.706 6.479-10.177 10.928h-3.007l-.869-8.066c-4.147-38.39 8.269-76.887 34.065-105.619zm-51.432 163.165v-27.12c0-4.058 3.297-7.359 7.35-7.359h9.812c-.011.351-.042.696-.042 1.05v40.78h-9.77c-4.053-.001-7.35-3.298-7.35-7.351zm32.12 10.09v-43.52c0-7.754 4.943-14.585 11.759-16.244l13.933-3.402c-1.931 8.946-2.929 17.846-2.929 26.583 0 22.608 3.267 42.039 9.702 57.891l-20.704-5.054c-6.815-1.665-11.761-8.501-11.761-16.254zm2.351 110.585h-20.917c-3.772 0-7.321-1.471-9.984-4.135-2.668-2.676-4.138-6.227-4.138-9.999 0-7.787 6.335-14.122 14.122-14.122h20.917c13.196 0 23.933-10.741 23.933-23.943v-23.146l15.703 3.834c9.103 13.137 21.328 22.661 36.593 28.516v16.831c-22.323 6.483-41.791 18.13-58.104 34.494-4.392-5.095-10.886-8.33-18.125-8.33zm-22.625 151.817c-.378-.419-.993-1.318-.856-2.627 4.694-45.153 16.842-82.182 35.527-109.739 4.455 8.318 13.232 13.991 23.312 13.991h9.036c4.743 0 8.818 2.91 10.538 7.037h-7.136c-9.564 0-17.346 7.781-17.346 17.346v72.774c0 .797.073 1.577.178 2.346h-50.719c-1.321 0-2.155-.706-2.534-1.128z"/><path d="m207.427 231.63c-10.397 7.273-20.083 7.273-30.482 0-3.394-2.375-8.071-1.549-10.445 1.847-2.375 3.394-1.548 8.07 1.846 10.444 7.798 5.455 15.819 8.183 23.84 8.183s16.042-2.728 23.84-8.183c3.394-2.374 4.221-7.051 1.846-10.444-2.375-3.396-7.052-4.22-10.445-1.847z"/><path d="m149.575 185.417c-4.142 0-7.5 3.357-7.5 7.5v2.563c0 4.143 3.358 7.5 7.5 7.5s7.5-3.357 7.5-7.5v-2.563c0-4.143-3.358-7.5-7.5-7.5z"/><path d="m234.796 185.417c-4.142 0-7.5 3.357-7.5 7.5v2.563c0 4.143 3.358 7.5 7.5 7.5s7.5-3.357 7.5-7.5v-2.563c0-4.143-3.358-7.5-7.5-7.5z"/><path d="m137.183 455.389h12.856c4.142 0 7.5-3.357 7.5-7.5s-3.358-7.5-7.5-7.5h-12.856c-4.142 0-7.5 3.357-7.5 7.5s3.358 7.5 7.5 7.5z"/><path d="m483.003 237.37c-3.283-2.733-7.572-3.856-11.775-3.083l-71.78 13.219c-6.806 1.253-11.745 7.186-11.745 14.105v52.271c-4.81-2.71-10.473-4.279-16.531-4.279-17.386 0-31.531 12.891-31.531 28.736s14.145 28.735 31.531 28.735 31.531-12.891 31.531-28.735v-76.181l70.465-12.977v48.961c-4.81-2.71-10.473-4.279-16.531-4.279-17.386 0-31.531 12.891-31.531 28.735s14.145 28.735 31.531 28.735 31.531-12.891 31.531-28.735v-74.207c0-4.271-1.882-8.287-5.165-11.021zm-111.831 114.704c-9.115 0-16.531-6.162-16.531-13.735 0-7.574 7.416-13.736 16.531-13.736s16.531 6.162 16.531 13.736c0 7.573-7.416 13.735-16.531 13.735zm85.465-15.74c-9.115 0-16.531-6.162-16.531-13.735s7.416-13.735 16.531-13.735 16.531 6.162 16.531 13.735-7.416 13.735-16.531 13.735z"/></g></svg>