<svg id="Capa_1"  enable-background="new 0 0 512 512" height="512" viewBox="0 0 512 512" width="512" xmlns="http://www.w3.org/2000/svg" xmlns:xlink="http://www.w3.org/1999/xlink"><linearGradient id="SVGID_1_" gradientUnits="userSpaceOnUse" x1="256" x2="256" y1="466" y2="46"><stop offset="0" stop-color="#fd3a84"/><stop offset="1" stop-color="#ffa68d"/></linearGradient><g><g><g><path d="m152 361c0 24.813 20.187 45 45 45s45-20.187 45-45v-108.289l90-22.5v58.369c-4.695-1.665-9.741-2.58-15-2.58-24.813 0-45 20.187-45 45s20.187 45 45 45 45-20.187 45-45v-120c0-4.619-2.128-8.98-5.769-11.823-3.641-2.842-8.387-3.849-12.869-2.729l-120 30c-6.677 1.669-11.362 7.669-11.362 14.552v77.58c-4.695-1.665-9.741-2.58-15-2.58-24.813 0-45 20.187-45 45zm165-15c-8.271 0-15-6.729-15-15s6.729-15 15-15 15 6.729 15 15-6.729 15-15 15zm-105 15c0 8.271-6.729 15-15 15s-15-6.729-15-15 6.729-15 15-15 15 6.729 15 15zm285-285h-331.973l-15.547-23.32c-2.781-4.174-7.464-6.68-12.48-6.68h-122c-8.284 0-15 6.716-15 15v390c0 8.284 6.716 15 15 15h482c8.284 0 15-6.716 15-15 0-15.706 0-342.814 0-360 0-8.284-6.716-15-15-15zm-15 360h-452v-360h98.973l55.547 83.32c2.781 4.173 7.465 6.68 12.48 6.68h285zm0-300h-276.973l-20-30h296.973z" fill="#fff"/></g></g></g></svg>